<svg id="svg" xmlns="http://www.w3.org/2000/svg" xmlns:xlink="http://www.w3.org/1999/xlink" width="400" height="415.05882352941177" viewBox="0, 0, 400,415.05882352941177"><g id="svgg"><path id="path0" d="M184.706 7.824 C 77.099 18.675,0.235 101.886,0.235 207.529 C 0.235 319.149,88.380 407.294,200.000 407.294 C 311.620 407.294,399.765 319.149,399.765 207.529 C 399.765 105.884,326.788 22.845,225.185 8.878 C 218.419 7.948,190.650 7.225,184.706 7.824 M209.647 31.733 C 309.392 35.134,387.876 129.164,374.840 229.647 C 357.737 361.477,206.433 427.912,98.004 351.202 C -0.555 281.474,-0.555 133.584,98.004 63.857 C 127.451 43.024,172.206 28.933,201.176 31.374 C 201.953 31.439,205.765 31.601,209.647 31.733 M134.588 76.949 C 129.675 78.154,125.141 80.631,121.201 84.263 L 119.135 86.167 120.476 90.134 C 122.093 94.918,123.093 99.743,123.838 106.353 C 124.240 109.927,124.470 139.616,124.668 213.647 C 124.929 311.579,124.979 316.102,125.809 318.353 C 131.590 334.025,152.413 336.838,166.962 323.913 L 168.984 322.118 167.583 318.009 C 163.999 307.491,163.720 303.357,163.434 256.519 L 163.191 216.803 171.596 217.082 C 188.372 217.638,197.608 221.005,205.642 229.492 C 212.224 236.445,215.104 243.051,224.486 272.706 C 233.734 301.941,235.699 306.870,241.533 315.469 C 253.220 332.697,271.939 337.459,287.627 327.196 C 298.799 319.887,300.752 308.641,293.237 294.909 L 290.965 290.760 287.718 294.392 C 283.946 298.611,282.229 299.550,279.588 298.839 C 274.285 297.411,271.393 291.646,260.694 261.170 C 251.719 235.603,250.055 231.354,246.969 226.125 C 240.369 214.939,229.994 205.443,220.156 201.583 L 216.951 200.326 222.089 197.283 C 254.991 177.797,275.225 140.676,272.099 105.531 C 269.690 78.444,247.563 67.527,226.900 83.230 L 225.800 84.067 227.725 87.092 C 242.830 110.833,229.346 156.898,201.058 178.192 C 190.122 186.425,180.999 189.966,165.059 192.168 L 163.294 192.411 163.291 144.088 C 163.288 113.289,163.111 94.655,162.803 92.706 C 160.887 80.601,148.317 73.581,134.588 76.949 " stroke="none" fill="#000000" fill-rule="evenodd"></path></g></svg>