<?xml version="1.0" encoding="UTF-8"?>
<svg xmlns="http://www.w3.org/2000/svg" xmlns:xlink="http://www.w3.org/1999/xlink" width="64px" height="66px" viewBox="0 0 64 66" version="1.1">
<g id="surface1">
<path style=" stroke:none;fill-rule:evenodd;fill:rgb(0%,0%,0%);fill-opacity:1;" d="M 29.554688 1.246094 C 12.335938 2.96875 0.0390625 16.203125 0.0390625 33.003906 C 0.0390625 50.757812 14.140625 64.773438 32 64.773438 C 49.859375 64.773438 63.960938 50.757812 63.960938 33.003906 C 63.960938 16.839844 52.285156 3.632812 36.03125 1.410156 C 34.945312 1.265625 30.503906 1.148438 29.554688 1.246094 M 33.542969 5.046875 C 49.503906 5.585938 62.058594 20.542969 59.972656 36.523438 C 57.238281 57.488281 33.027344 68.054688 15.679688 55.855469 C -0.0898438 44.765625 -0.0898438 21.246094 15.679688 10.15625 C 20.390625 6.84375 27.554688 4.601562 32.1875 4.988281 C 32.3125 5 32.921875 5.027344 33.542969 5.046875 M 21.535156 12.238281 C 20.746094 12.429688 20.023438 12.824219 19.390625 13.402344 L 19.0625 13.703125 L 19.277344 14.335938 C 19.535156 15.09375 19.695312 15.863281 19.8125 16.914062 C 19.878906 17.480469 19.914062 22.203125 19.945312 33.976562 C 19.988281 49.550781 19.996094 50.273438 20.128906 50.628906 C 21.054688 53.121094 24.386719 53.570312 26.714844 51.515625 L 27.039062 51.226562 L 26.8125 50.574219 C 26.238281 48.902344 26.195312 48.246094 26.148438 40.796875 L 26.109375 34.480469 L 27.457031 34.523438 C 30.140625 34.613281 31.617188 35.148438 32.902344 36.496094 C 33.957031 37.601562 34.417969 38.652344 35.917969 43.371094 C 37.398438 48.019531 37.710938 48.804688 38.644531 50.171875 C 40.515625 52.910156 43.511719 53.667969 46.019531 52.035156 C 47.808594 50.875 48.121094 49.085938 46.917969 46.902344 L 46.554688 46.242188 L 46.035156 46.820312 C 45.429688 47.488281 45.15625 47.640625 44.734375 47.527344 C 43.886719 47.300781 43.421875 46.382812 41.710938 41.535156 C 40.273438 37.46875 40.007812 36.792969 39.515625 35.960938 C 38.460938 34.183594 36.800781 32.671875 35.226562 32.058594 L 34.710938 31.859375 L 35.535156 31.375 C 40.796875 28.277344 44.035156 22.371094 43.535156 16.785156 C 43.152344 12.476562 39.609375 10.738281 36.304688 13.238281 L 36.128906 13.371094 L 36.4375 13.851562 C 38.851562 17.625 36.695312 24.953125 32.167969 28.339844 C 30.417969 29.648438 28.960938 30.210938 26.410156 30.5625 L 26.128906 30.601562 L 26.125 22.914062 C 26.125 18.015625 26.097656 15.054688 26.046875 14.742188 C 25.742188 12.820312 23.730469 11.703125 21.535156 12.238281 "/>
</g>
</svg>
